<svg width="32" height="32" xmlns="http://www.w3.org/2000/svg">
 <g id="Layer_1">
  <title>Layer 1</title>
  <path stroke="#000" id="svg_20" d="m11.05811,23.41325l9.12118,0c1.31476,-0.00308 2.2117,-1.40136 2.20732,-2.83989l0,-0.96726c2.60305,-0.00258 4.4916,-2.47383 4.49063,-5.35543c0.00097,-2.93291 -1.85051,-5.34251 -4.00557,-5.34042l-14.05921,0l0,11.66336c0.00204,1.58384 1.08084,2.83681 2.24566,2.83964zm11.32821,-12.3091l0,0l0.48506,0c1.78337,-0.00357 2.35541,2.12918 2.34685,3.16251c0.00175,1.6685 -0.97546,3.2687 -2.83191,3.11342l0,-6.27593zm-18.59995,13.01932c0.00165,2.15588 1.30133,3.15562 2.34743,3.16178l18.86802,0c1.24781,-0.00615 2.3415,-1.24682 2.34705,-3.16178l-23.5625,0z" fill="#ffffff"/>
 </g>
</svg>