<svg width="32" height="32" xmlns="http://www.w3.org/2000/svg">
 <g id="Layer_1">
  <title>Layer 1</title>
  <path id="svg_31" d="m27.38597,11.6686c-0.83139,1.01899 -4.41174,2.31144 -4.87353,2.31144l-3.92474,0c-0.65137,0 -1.63234,0.14105 -2.09412,0.4644c0.05305,0.05181 0.1061,0.10363 0.15741,0.1564c0.35482,0.36365 1.18447,0.87602 1.91845,0.87602c0.34525,0 0.62876,-0.11034 0.86965,-0.33966c1.02445,-0.96622 1.55668,-1.07944 1.8654,-1.07944c0.36612,0 0.68094,0.18518 0.86617,0.50949c0.34786,0.60065 0.09218,1.38648 -0.16871,2.00248c-0.62441,1.46228 -2.6594,3.04258 -4.8657,3.04258c-0.00174,0 -0.00174,0 -0.00348,0c-0.30786,0 -0.60963,-0.03166 -0.89835,-0.09499l0,3.11934c0,0.71195 0.89835,2.43042 3.62384,2.43042s3.43947,-3.55111 3.43947,-4.16231l0,-4.32927c1.93932,-1.12166 3.92387,-1.7319 4.87353,-3.73726c0.89313,-1.88446 0.04522,-2.18862 -0.7853,-1.16963zm-6.09626,4.5346c0.69224,-1.63019 -0.04609,-1.63019 -1.33926,-0.40779s-3.18727,0.10075 -3.83343,-0.56131c-0.64615,-0.6611 -1.2923,-1.17059 -2.4472,-1.11974c-1.1549,0.05085 -3.87865,-0.15448 -5.45011,-0.56131c-1.56972,-0.40779 -4.25695,-2.8785 -4.47871,-2.24043c-0.23133,0.66206 0.1835,1.1207 1.01575,2.24043c0.83052,1.12166 4.41348,2.66549 4.41348,2.66549s0,3.31316 0,4.68812c0,1.37688 2.58548,3.4638 3.92387,3.4638s2.35502,-1.01899 2.35502,-1.73286l0,-4.32927c2.21674,1.27614 5.14834,-0.47399 5.84058,-2.10514zm-1.39144,-3.63747c1.51667,0 2.74723,-1.35673 2.74723,-3.0301c0,-1.67433 -1.23056,-3.03106 -2.74723,-3.03106s-2.74636,1.35673 -2.74636,3.03106c0,1.67337 1.22969,3.0301 2.74636,3.0301zm-7.23811,0c1.51667,0 2.74636,-1.35673 2.74636,-3.0301c0,-1.67433 -1.22969,-3.03106 -2.74636,-3.03106c-1.51754,0 -2.74723,1.35673 -2.74723,3.03106c0,1.67337 1.22882,3.0301 2.74723,3.0301z" stroke="#000" fill="#000000"/>
 </g>
</svg>