<svg width="32" height="32" xmlns="http://www.w3.org/2000/svg">
 <g id="Layer_1">
  <title>Layer 1</title>
  <path stroke="#000" id="svg_19" d="m15.80354,5.26476c-5.29848,0 -9.59375,4.53313 -9.59375,10.125c0,5.59199 4.29528,10.125 9.59375,10.125c5.29859,0 9.59375,-4.53301 9.59375,-10.125c0,-5.59187 -4.29516,-10.125 -9.59375,-10.125zm-0.82051,4.55187l1.59745,0l0,1.79327l-1.59745,0l0,-1.79327zm2.6437,10.88304l-1.75709,0c-0.68264,0 -0.97373,-0.30654 -0.97373,-1.04226l0,-4.7824c0,-0.22988 -0.11608,-0.33723 -0.31942,-0.33723l-0.58091,0l0,-1.65588l1.75721,0c0.68315,0 0.97297,0.32182 0.97297,1.04213l0,4.79781c0,0.21526 0.11608,0.33724 0.31942,0.33724l0.58091,0l0,1.64059l0.00063,0l0,0z" fill="#ffffff"/>
 </g>
</svg>