<svg width="32" height="32" xmlns="http://www.w3.org/2000/svg">
 <g id="Layer_1">
  <title>Layer 1</title>
  <path stroke="#000" id="svg_24" d="m14.95754,30.28968l0.47917,-2.55838l1.91671,-0.6396l-2.39588,3.19798l-11.97912,0l0,-19.1875l14.375,0l0,15.98952" fill="#ffffff"/>
  <path transform="rotate(-179.582 21.2246 5.06104)" id="svg_29" d="m20.40925,7.41786l2.84396,-1.45568l-5.49866,0l-5.49865,0l0,-0.90114l0,-0.90114l5.43557,0c2.98956,0 5.43557,-0.04567 5.43557,-0.1015c0,-0.05582 -1.19013,-0.71088 -2.64474,-1.45568l-2.64475,-1.35419l2.44456,0l2.44455,0l3.73338,1.90808l3.73337,1.90808l-3.74054,1.90442l-3.74053,1.90442l-2.57352,0l-2.57353,0l2.84397,-1.45568l0,0z" stroke="#000" fill="#000000"/>
 </g>
</svg>