<svg width="32" height="32" xmlns="http://www.w3.org/2000/svg">
 <g id="Layer_1">
  <title>Layer 1</title>
  <path id="svg_2" d="m25.33601,13.59271l-21.61501,0l10.8075,6.1862l10.8075,-6.1862zm-10.1677,8.82152c-0.19859,0.11401 -0.41876,0.17145 -0.63894,0.17145s-0.44035,-0.05744 -0.6398,-0.17145l-11.01645,-6.3037l0,12.85718l23.3125,0l0,-12.85718l-11.01732,6.3037z" stroke="#000" fill="#fff"/>
  <path transform="rotate(-0.0645472 22.6499 6.1002)" stroke="#000" id="svg_3" d="m21.91687,8.96004l2.55659,-1.76637l-4.94305,0l-4.94304,0l0,-1.09347l0,-1.09347l4.88633,0c2.68748,0 4.88633,-0.05542 4.88633,-0.12316c0,-0.06774 -1.06988,-0.8626 -2.3775,-1.76637l-2.37751,-1.64321l2.19754,0l2.19754,0l3.35614,2.31532l3.35613,2.31532l-3.36257,2.31089l-3.36257,2.31089l-2.31348,0l-2.31349,0l2.5566,-1.76637l0,0z" fill="#000000"/>
 </g>
</svg>