<svg width="32" height="32" xmlns="http://www.w3.org/2000/svg">
 <g id="Layer_1">
  <title>Layer 1</title>
  <path id="svg_21" d="m6.52707,21.00662c-0.00632,-5.13221 -0.01264,-10.26443 -0.01896,-15.39664c5.70762,0.05899 11.43944,-0.13974 17.12773,0.15147c2.77387,0.66515 2.37411,4.8058 2.32907,7.89855c-0.12168,2.33231 1.62068,6.95583 -2.90483,7.65079c-2.25621,0.00008 -2.26509,0.65115 -2.0348,1.82889c0.26725,1.7644 -0.50861,5.71689 -4.21503,3.21166l-10.28318,-5.34471l0,0zm17.46806,-1.67772c0.00917,-4.6132 -0.06733,-8.54893 -0.44599,-11.58837c-3.36438,-1.03386 -7.91059,-0.53072 -11.7172,-0.54644c-1.49637,0.49169 3.54963,2.12432 4.61984,2.75781c4.0629,1.3621 5.27509,3.83922 4.5735,6.63872c0,1.089 0,2.17799 0,3.26699c0.74923,-0.00061 2.29929,-0.2514 2.96985,-0.52872l0,0z" stroke="#000" fill="#ffffff"/>
 </g>
</svg>