<svg width="32" height="32" xmlns="http://www.w3.org/2000/svg">
 <g id="Layer_1">
  <title>Layer 1</title>
  <path id="svg_1" d="m20.63465,21.38408c-0.99512,-0.41306 -1.39246,-1.54829 -1.39246,-1.54829s-0.44833,0.25714 -0.44833,-0.46503s0.44833,0.46503 0.89666,-2.32334c0,0 1.24302,-0.362 0.99512,-3.35553l-0.29889,0c0,0 0.74634,-3.20052 0,-4.28468c-0.74722,-1.08416 -1.04522,-1.80633 -2.68822,-2.32334s-1.04435,-0.41397 -2.23901,-0.36108c-1.19467,0.05197 -2.19066,0.72217 -2.19066,1.08325c0,0 -0.74634,0.05197 -1.04435,0.362c-0.29889,0.31002 -0.79645,1.75436 -0.79645,2.11635s0.24878,2.78837 0.49756,3.30447l-0.29625,0.10304c-0.24878,2.99353 0.99512,3.35553 0.99512,3.35553c0.44745,2.78837 0.89578,1.60117 0.89578,2.32334s-0.44833,0.46503 -0.44833,0.46503s-0.39734,1.13523 -1.39246,1.54829c-0.99512,0.41215 -6.51925,2.63154 -6.96846,3.09657c-0.44921,0.46594 -0.39822,2.63336 -0.39822,2.63336l23.68854,0c0,0 0.05187,-2.16742 -0.39734,-2.63336c-0.45009,-0.46503 -5.97422,-2.68442 -6.96934,-3.09657zm-10.96211,-0.15683c-0.08703,-0.16413 -0.1301,-0.28267 -0.1301,-0.28267s-0.37976,0.21793 -0.37976,-0.39391s0.37976,0.39391 0.75952,-1.96864c0,0 1.05402,-0.30637 0.84304,-2.84399l-0.25317,0c0,0 0.12571,-0.53889 0.20834,-1.21638c-0.00352,-0.28084 0.00527,-0.57992 0.03253,-0.90818l0.0334,-0.38844c-0.01846,-0.44862 -0.09406,-0.85621 -0.27427,-1.1179c-0.63294,-0.91821 -0.88611,-1.53096 -2.27769,-1.96864c-1.39158,-0.43768 -0.88611,-0.35105 -1.89793,-0.30637c-1.0127,0.04377 -1.85661,0.61184 -1.85661,0.91912c0,0 -0.63294,0.04377 -0.88611,0.30637c-0.23823,0.24711 -0.61975,1.33309 -0.66546,1.7188l0,0.25622c0.04132,0.59542 0.2268,2.23307 0.41229,2.61877l-0.25142,0.08754c-0.2101,2.53762 0.84304,2.84399 0.84304,2.84399c0.37976,2.36255 0.75952,1.3568 0.75952,1.96864s-0.37976,0.39391 -0.37976,0.39391s-0.33669,0.9638 -1.1806,1.31212c-0.05362,0.02188 -0.12219,0.05106 -0.20395,0.08389l0,4.77251l0.50547,0c-0.02549,-1.16532 0.06769,-2.66892 0.65579,-3.27711c0.31295,-0.3237 1.33884,-0.85621 5.58391,-2.60965zm19.62983,-8.25752c-0.03516,-0.34467 -0.11164,-0.65196 -0.25669,-0.86259c-0.63206,-0.91912 -0.88611,-1.53096 -2.27681,-1.96864c-1.39246,-0.43768 -0.88611,-0.35105 -1.89881,-0.30637c-1.01182,0.04377 -1.85574,0.61184 -1.85574,0.91912c0,0 -0.63206,0.04377 -0.88611,0.30637c-0.23823,0.24802 -0.62327,1.34221 -0.66634,1.72427l0.02901,0l0.07033,0.8325c0.01758,0.21063 0.01934,0.39756 0.02374,0.58813c0.07912,0.60728 0.18461,1.23097 0.2901,1.4489l-0.25142,0.08754c-0.2101,2.53762 0.84392,2.84399 0.84392,2.84399c0.37976,2.36255 0.75864,1.3568 0.75864,1.96864s-0.37976,0.39391 -0.37976,0.39391s-0.04659,0.12948 -0.14329,0.3082c4.19321,1.73247 5.2103,2.26134 5.51974,2.58412c0.58898,0.60819 0.68129,2.11088 0.65579,3.27711l0.42196,0l0,-4.83816c-0.01407,-0.00547 -0.0334,-0.01368 -0.04571,-0.01915c-0.84304,-0.34923 -1.1806,-1.31212 -1.1806,-1.31212s-0.38064,0.21793 -0.38064,-0.39391s0.38064,0.39391 0.75952,-1.96864c0,0 0.70678,-0.20881 0.84655,-1.67868l0,-1.11881c-0.00088,-0.01641 -0.00088,-0.03009 -0.00264,-0.0465l-0.25405,0c0,0 0.189,-0.81153 0.25669,-1.69691l0,-1.07231l0.00264,0z" stroke="#000" fill="#fff"/>
 </g>
</svg>