<svg width="32" height="32" xmlns="http://www.w3.org/2000/svg">
 <g id="Layer_1">
  <title>Layer 1</title>
  <path id="svg_23" d="m8.28226,21.60825l15.87225,0.00602l-0.51506,0.75648l-14.83605,-0.01807l-0.52114,-0.74443l0,0zm0.10908,-10.06288l15.66015,-0.01807l0.45448,0.77603l-16.57517,0.00602l0.46054,-0.76399zm-1.54547,5.04237l18.73896,-0.01807l-0.02422,0.77603l-18.70262,-0.01204l-0.01212,-0.74592zm18.75447,0.07198c0,5.13751 -4.20648,9.31693 -9.37779,9.31693c-5.16907,0 -9.37477,-4.18017 -9.37477,-9.31693c0,-5.13678 4.20645,-9.3162 9.37477,-9.3162c5.17131,-0.00075 9.37779,4.17942 9.37779,9.3162zm-9.37705,-10.06288c-5.5817,0 -10.12386,4.51378 -10.12386,10.06212c0,5.54909 4.54216,10.06288 10.12386,10.06288c5.58474,0 10.12614,-4.51378 10.12614,-10.06288c0,-5.54834 -4.5414,-10.06212 -10.12614,-10.06212zm2.84104,10.06288c0,5.48986 -1.49671,9.31693 -2.84104,9.31693c-1.34281,0 -2.83949,-3.82707 -2.83949,-9.31693c0,-5.49137 1.49595,-9.3162 2.83949,-9.3162c1.34357,-0.00075 2.84104,3.82483 2.84104,9.3162zm-2.84104,-10.06288c-2.33179,0 -3.59011,5.18474 -3.59011,10.06212c0,4.87888 1.25832,10.06288 3.59011,10.06288c2.33181,0 3.59241,-5.18476 3.59241,-10.06288c-0.00076,-4.87739 -1.2606,-10.06212 -3.59241,-10.06212zm6.6537,10.06288c0,5.13751 -2.98587,9.31693 -6.6537,9.31693c-3.66707,0 -6.65142,-4.18017 -6.65142,-9.31693c0,-5.13678 2.98435,-9.3162 6.65142,-9.3162c3.66783,-0.00075 6.6537,4.17942 6.6537,9.3162zm-6.6537,-10.06288c-4.08048,0 -7.40203,4.51378 -7.40203,10.06212c0,5.54909 3.32155,10.06288 7.40203,10.06288c4.082,0 7.40281,-4.51378 7.40281,-10.06288c0,-5.54834 -3.32082,-10.06212 -7.40281,-10.06212z" stroke="#000" fill="#ffffff"/>
 </g>
</svg>